<?xml version="1.0" standalone="no"?>
<!DOCTYPE svg PUBLIC "-//W3C//DTD SVG 20010904//EN"
 "http://www.w3.org/TR/2001/REC-SVG-20010904/DTD/svg10.dtd">
<svg version="1.0" xmlns="http://www.w3.org/2000/svg"
 width="700.000000pt" height="700.000000pt" viewBox="0 0 700.000000 700.000000"
 preserveAspectRatio="xMidYMid meet">
<metadata>
Created by potrace 1.14, written by Peter Selinger 2001-2017
</metadata>
<g transform="translate(0.000000,700.000000) scale(0.100000,-0.100000)"
fill="#000000" stroke="none">
<path d="M705 6994 c-11 -2 -45 -10 -75 -16 -30 -6 -57 -12 -60 -13 -35 -4
-158 -67 -230 -116 -91 -62 -212 -200 -249 -284 -5 -11 -18 -41 -29 -65 -12
-25 -29 -74 -39 -110 -17 -62 -18 -199 -18 -2890 l0 -2825 23 -78 c43 -151
108 -256 228 -373 67 -66 102 -91 186 -133 62 -31 137 -59 188 -71 83 -19 136
-19 2895 -17 l2810 2 73 23 c228 70 403 216 501 416 95 193 86 -144 86 3056
l0 2825 -23 78 c-79 275 -285 483 -562 569 l-75 23 -2805 1 c-1543 1 -2814 0
-2825 -2z"/>
</g>
</svg>
